<svg xmlns="http://www.w3.org/2000/svg" width="167" height="237" viewBox="0 0 167 237">
  <g id="Group_1" data-name="Group 1" transform="translate(-0.42 -1079.863)">
    <path id="Rectangle_1" data-name="Rectangle 1" d="M52,0H86a0,0,0,0,1,0,0V194a43,43,0,0,1-43,43h0A43,43,0,0,1,0,194V52A52,52,0,0,1,52,0Z" transform="translate(0.42 1079.863)" fill="#b12d2d"/>
    <path id="Path_1" data-name="Path 1" d="M82.505,0H164a52,52,0,0,1-52,52H82.505Z" transform="translate(3.42 1079.863)" fill="#e85050"/>
    <path id="Rectangle_3" data-name="Rectangle 3" d="M35,0H141a0,0,0,0,1,0,0V0a35,35,0,0,1-35,35H0a0,0,0,0,1,0,0v0A35,35,0,0,1,35,0Z" transform="translate(0.42 1163.863)" fill="#b12d2d"/>
  </g>
</svg>
